<svg id="e6888220-2c40-4d29-aa55-e1d769481c52" data-name="Capa 1" xmlns="http://www.w3.org/2000/svg" width="104.5" height="104" viewBox="0 0 104.5 104"><defs><style>.eee97e2c-1097-496c-a998-c295d23339ef{fill:#13b2a8;}.f479b439-7a96-4bbc-9bd9-8a1802841b03{fill:#5d3a26;}.b4809e0c-b894-4439-a067-2d426ef485a5{fill:#231304;}.a4734b5c-3e15-40d3-b3a8-40888db9e38d{fill:#682144;}.b97179e9-3b7c-48b7-ba57-97d0a2007e06{fill:#b78c62;}.e642671d-d181-4c97-a450-aeb339b8d161{fill:#a1764b;}.fd17b070-7aa7-4b36-8f88-0234ed53d158{fill:#fff;}.bac79894-1213-449d-82a1-2f00207106b9{fill:#281612;}.e6d5731d-c5f5-4df2-9250-1ebd14e88d1a{fill:#5a3724;}</style></defs><title>Alana</title><g id="b9be1cf5-182a-40fd-aa63-e33a444fa08d" data-name="Alana"><path class="eee97e2c-1097-496c-a998-c295d23339ef" d="M397.5,853a51.8,51.8,0,0,1-26.3,45.1h0a52.9,52.9,0,0,1-43.8,3.7l-.5-.2a49.3,49.3,0,0,1-6.6-3h-.1l-.9-.6A52.1,52.1,0,1,1,397.5,853Z" transform="translate(-293 -801)"/><rect class="f479b439-7a96-4bbc-9bd9-8a1802841b03" x="29" y="31" width="47" height="66"/><path class="b4809e0c-b894-4439-a067-2d426ef485a5" d="M325.8,895.1,327,871h37c-1,0,1,26,1,26Z" transform="translate(-293 -801)"/><path class="a4734b5c-3e15-40d3-b3a8-40888db9e38d" d="M371.2,898.1h0a52.9,52.9,0,0,1-43.8,3.7l-.5-.2c-2.1-.9-4.3-1.8-6.6-3h-.1l-.9-.6h0a51.6,51.6,0,0,1,15.5-5.5A53.8,53.8,0,0,1,371.2,898.1Z" transform="translate(-293 -801)"/><path class="b97179e9-3b7c-48b7-ba57-97d0a2007e06" d="M344,896a14.6,14.6,0,0,0,9.3-2.1,1,1,0,0,0-.4-1.9h0a1.1,1.1,0,0,1-.9-1.1V883a1.1,1.1,0,0,1,1-1h0a6.9,6.9,0,0,0,3.2-1.3c9.8-9.2,10.1-14.8,10.4-14.9a7.6,7.6,0,0,0,4.4-5.7v-.2c0-6.9-1-6.9-2-6.9a3.5,3.5,0,0,0-2,1s-2,2-2,0V829.7a1,1,0,0,0-.6-1c-3.2-1.4-18.6-7.6-38.7,0a1.2,1.2,0,0,0-.7,1V854s-.9,1.7-1.8-.4a.9.9,0,0,0-.9-.6c-1.5-.1-2.3-.3-2.3,5s2.7,7.5,4.2,7.9a1,1,0,0,1,.8,1s5,12.1,14.1,15a1.1,1.1,0,0,1,.9,1v8a.9.9,0,0,1-.9,1l-1,.2a1,1,0,0,0-.3,1.9,22.4,22.4,0,0,0,6.2,2Z" transform="translate(-293 -801)"/><rect class="e642671d-d181-4c97-a450-aeb339b8d161" x="50" y="61" width="4" height="2" rx="1"/><path class="e642671d-d181-4c97-a450-aeb339b8d161" d="M368,855a4.3,4.3,0,0,1,2,4C370,856,370,854,368,855Z" transform="translate(-293 -801)"/><path class="e642671d-d181-4c97-a450-aeb339b8d161" d="M321,859s0-3,2-3C322,855,321,855,321,859Z" transform="translate(-293 -801)"/><path class="e642671d-d181-4c97-a450-aeb339b8d161" d="M321,861s1,3,3,4C323,864,322,862,321,861Z" transform="translate(-293 -801)"/><path class="e642671d-d181-4c97-a450-aeb339b8d161" d="M323,858s1,1,0,1a1,1,0,0,0-1,1S322,858,323,858Z" transform="translate(-293 -801)"/><path class="e642671d-d181-4c97-a450-aeb339b8d161" d="M368,858s1-1,0-1S368,858,368,858Z" transform="translate(-293 -801)"/><path class="e642671d-d181-4c97-a450-aeb339b8d161" d="M367,863s2-2,2-4C369,859,368,862,367,863Z" transform="translate(-293 -801)"/><path class="e642671d-d181-4c97-a450-aeb339b8d161" d="M340,882s3,1,12,0c-1,1-12,5-12,5Z" transform="translate(-293 -801)"/><circle class="fd17b070-7aa7-4b36-8f88-0234ed53d158" cx="73.5" cy="63.5" r="1.5"/><ellipse class="bac79894-1213-449d-82a1-2f00207106b9" cx="41.5" cy="48.5" rx="1.5" ry="3.5"/><ellipse class="bac79894-1213-449d-82a1-2f00207106b9" cx="62.5" cy="48.5" rx="1.5" ry="3.5"/><path class="e6d5731d-c5f5-4df2-9250-1ebd14e88d1a" d="M340,842v-3s-7,0-9,3C331,842,337,840,340,842Z" transform="translate(-293 -801)"/><path class="e6d5731d-c5f5-4df2-9250-1ebd14e88d1a" d="M350,842v-3s7,0,9,3C359,842,353,840,350,842Z" transform="translate(-293 -801)"/><path class="fd17b070-7aa7-4b36-8f88-0234ed53d158" d="M339,868h13S345.5,874.5,339,868Z" transform="translate(-293 -801)"/><circle class="fd17b070-7aa7-4b36-8f88-0234ed53d158" cx="31.5" cy="64.5" r="1.5"/><path class="f479b439-7a96-4bbc-9bd9-8a1802841b03" d="M322,832h3s14-11,19-4c9,1,0,8,21,18,4,.6,4-.4,4-.4V829s-5-16-21-15C329,814,322,822,322,832Z" transform="translate(-293 -801)"/></g></svg>