<svg id="f6323751-565d-417e-907e-4f5e54ea587a" data-name="Capa 1" xmlns="http://www.w3.org/2000/svg" width="104.5" height="104" viewBox="0 0 104.5 104"><defs><style>.ee91b9c6-3dc2-4c9b-9880-3e49c28f0094{fill:#13b2a8;}.b5653087-8305-4d9b-a129-d6ea3d8cac5a{fill:#2d3f50;}.aa31b6a3-b95a-48cf-ae55-8060e0f66cae{fill:#1e160e;}.a0302eb7-5360-489c-89b2-342701a3708d{fill:#fbcaab;}.b24ab480-f3b3-428f-93e0-e78f54a0bd59{fill:#ecad91;}.bc7d1362-acae-4ccf-9b64-99814fc61e2e{fill:#281612;}</style></defs><title>Vane</title><g id="a626577b-e430-49c8-ab37-23b53b22b87a" data-name="Lob"><path class="ee91b9c6-3dc2-4c9b-9880-3e49c28f0094" d="M280.5,853a51.8,51.8,0,0,1-26.3,45.1h0a52.9,52.9,0,0,1-43.8,3.7l-.5-.2a49.3,49.3,0,0,1-6.6-3h-.1l-.9-.6A52.1,52.1,0,1,1,280.5,853Z" transform="translate(-176 -801)"/><path class="b5653087-8305-4d9b-a129-d6ea3d8cac5a" d="M254.2,898.1h0a52.9,52.9,0,0,1-43.8,3.7l-.5-.2c-2.1-.9-4.3-1.8-6.6-3h-.1l-.9-.6h0a51.6,51.6,0,0,1,15.5-5.5A53.8,53.8,0,0,1,254.2,898.1Z" transform="translate(-176 -801)"/><path class="aa31b6a3-b95a-48cf-ae55-8060e0f66cae" d="M204.4,853V825S203,811,221,811s24,4,24,4,6,1,9-2c0,0-6,5-3,9s1.4,31,1.4,31l-7.4,7-38-2Z" transform="translate(-176 -801)"/><path class="a0302eb7-5360-489c-89b2-342701a3708d" d="M227,896s6.5.9,11.3-3.5a20,20,0,0,0-3.3-.6V882h3a20.4,20.4,0,0,0,11-9v-7a7.5,7.5,0,0,0,5-6c0-7-1-7-2-7a3.5,3.5,0,0,0-2,1s-2,2-2,0V829s-17-9-40,0v25s-1,2-2-1c-2,0-3-1-3,5s4,8,5,8v8s7,7,15,8v9.8l-4.5.6S221,895,227,896Z" transform="translate(-176 -801)"/><path class="b24ab480-f3b3-428f-93e0-e78f54a0bd59" d="M224,870a16.9,16.9,0,0,0,8,0S227,873,224,870Z" transform="translate(-176 -801)"/><rect class="b24ab480-f3b3-428f-93e0-e78f54a0bd59" x="50" y="61" width="4" height="2" rx="1"/><path class="b24ab480-f3b3-428f-93e0-e78f54a0bd59" d="M251,855a4.3,4.3,0,0,1,2,4C253,856,253,854,251,855Z" transform="translate(-176 -801)"/><path class="b24ab480-f3b3-428f-93e0-e78f54a0bd59" d="M204,859s0-3,2-3C205,855,204,855,204,859Z" transform="translate(-176 -801)"/><path class="b24ab480-f3b3-428f-93e0-e78f54a0bd59" d="M204,861s1,3,3,4C206,864,205,862,204,861Z" transform="translate(-176 -801)"/><path class="b24ab480-f3b3-428f-93e0-e78f54a0bd59" d="M206,858s1,1,0,1a1,1,0,0,0-1,1S205,858,206,858Z" transform="translate(-176 -801)"/><path class="b24ab480-f3b3-428f-93e0-e78f54a0bd59" d="M251,858s1-1,0-1S251,858,251,858Z" transform="translate(-176 -801)"/><path class="b24ab480-f3b3-428f-93e0-e78f54a0bd59" d="M250,863s2-2,2-4C252,859,251,862,250,863Z" transform="translate(-176 -801)"/><path class="b24ab480-f3b3-428f-93e0-e78f54a0bd59" d="M223,882s3,1,12,0c-1,1-12,5-12,5Z" transform="translate(-176 -801)"/><ellipse class="bc7d1362-acae-4ccf-9b64-99814fc61e2e" cx="41.5" cy="48.5" rx="1.5" ry="3.5"/><ellipse class="bc7d1362-acae-4ccf-9b64-99814fc61e2e" cx="62.5" cy="48.5" rx="1.5" ry="3.5"/><path class="bc7d1362-acae-4ccf-9b64-99814fc61e2e" d="M223,842v-3s-7,0-9,3C214,842,220,840,223,842Z" transform="translate(-176 -801)"/><path class="bc7d1362-acae-4ccf-9b64-99814fc61e2e" d="M233,842v-3s7,0,9,3C242,842,236,840,233,842Z" transform="translate(-176 -801)"/></g></svg>