<svg id="e3b7eec4-d28d-4a4b-9d64-dc325eb30022" data-name="Capa 1" xmlns="http://www.w3.org/2000/svg" width="104.5" height="104" viewBox="0 0 104.5 104"><defs><style>.afe42586-5e21-484a-9dcc-c4eaec3e8e89{fill:#13b2a8;}.a4d4c2fb-5713-4f60-a1dd-a1fce1a3cd7a{fill:#a9638c;}.aad83320-7e48-4510-827b-e0f950ba793e{fill:#1e160e;}.eb4d9e74-5e5a-4c0d-aae0-54c9ad3f9186{fill:#b78c62;}.ed0a594c-e681-4456-a5e3-1f2f87ce40d0{fill:#a1764b;}.a1537f61-5f55-4185-a651-b9c95d93a6b4{fill:#281612;}</style></defs><title>Manu</title><g id="b8b3f487-dffe-4283-a772-cf59994b538a" data-name="Manu"><path class="afe42586-5e21-484a-9dcc-c4eaec3e8e89" d="M163.5,853a51.8,51.8,0,0,1-26.3,45.1h0a52.9,52.9,0,0,1-43.8,3.7l-.5-.2a49.3,49.3,0,0,1-6.6-3h-.1l-.9-.6A52.1,52.1,0,1,1,163.5,853Z" transform="translate(-59 -801)"/><path class="a4d4c2fb-5713-4f60-a1dd-a1fce1a3cd7a" d="M137.2,898.1h0a52.9,52.9,0,0,1-43.8,3.7l-.5-.2c-2.1-.9-4.3-1.8-6.6-3h-.1l-.9-.6h0a51.6,51.6,0,0,1,15.5-5.5A53.8,53.8,0,0,1,137.2,898.1Z" transform="translate(-59 -801)"/><path class="aad83320-7e48-4510-827b-e0f950ba793e" d="M89,853V828s21-17,44,0v26l-2,4H95S90,857,89,853Z" transform="translate(-59 -801)"/><path class="eb4d9e74-5e5a-4c0d-aae0-54c9ad3f9186" d="M110,896s6.5.9,11.3-3.5a20,20,0,0,0-3.3-.6V882h3a20.4,20.4,0,0,0,11-9v-7a7.5,7.5,0,0,0,5-6c0-7-1-7-2-7a3.5,3.5,0,0,0-2,1s-2,2-2,0V829s-17-9-40,0v25s-1,2-2-1c-2,0-3-1-3,5s4,8,5,8v8s7,7,15,8v9.8l-4.5.6S104,895,110,896Z" transform="translate(-59 -801)"/><path class="ed0a594c-e681-4456-a5e3-1f2f87ce40d0" d="M107,870a16.9,16.9,0,0,0,8,0S110,873,107,870Z" transform="translate(-59 -801)"/><rect class="ed0a594c-e681-4456-a5e3-1f2f87ce40d0" x="50" y="61" width="4" height="2" rx="1"/><path class="ed0a594c-e681-4456-a5e3-1f2f87ce40d0" d="M134,855a4.3,4.3,0,0,1,2,4C136,856,136,854,134,855Z" transform="translate(-59 -801)"/><path class="ed0a594c-e681-4456-a5e3-1f2f87ce40d0" d="M87,859s0-3,2-3C88,855,87,855,87,859Z" transform="translate(-59 -801)"/><path class="ed0a594c-e681-4456-a5e3-1f2f87ce40d0" d="M87,861s1,3,3,4C89,864,88,862,87,861Z" transform="translate(-59 -801)"/><path class="ed0a594c-e681-4456-a5e3-1f2f87ce40d0" d="M89,858s1,1,0,1a1,1,0,0,0-1,1S88,858,89,858Z" transform="translate(-59 -801)"/><path class="ed0a594c-e681-4456-a5e3-1f2f87ce40d0" d="M134,858s1-1,0-1S134,858,134,858Z" transform="translate(-59 -801)"/><path class="ed0a594c-e681-4456-a5e3-1f2f87ce40d0" d="M133,863s2-2,2-4C135,859,134,862,133,863Z" transform="translate(-59 -801)"/><path class="ed0a594c-e681-4456-a5e3-1f2f87ce40d0" d="M106,882s3,1,12,0c-1,1-12,5-12,5Z" transform="translate(-59 -801)"/><ellipse class="a1537f61-5f55-4185-a651-b9c95d93a6b4" cx="41.5" cy="48.5" rx="1.5" ry="3.5"/><ellipse class="a1537f61-5f55-4185-a651-b9c95d93a6b4" cx="62.5" cy="48.5" rx="1.5" ry="3.5"/><path class="a1537f61-5f55-4185-a651-b9c95d93a6b4" d="M106,842v-3s-7,0-9,3C97,842,103,840,106,842Z" transform="translate(-59 -801)"/><path class="a1537f61-5f55-4185-a651-b9c95d93a6b4" d="M116,842v-3s7,0,9,3C125,842,119,840,116,842Z" transform="translate(-59 -801)"/></g></svg>