<svg id="b12521ec-0137-4a96-856b-5d478b04e76a" data-name="Capa 1" xmlns="http://www.w3.org/2000/svg" width="524.2" height="237.3" viewBox="0 0 524.2 237.3"><defs><style>.b473499d-cebc-49d2-bc8b-96bf39304848{font-size:121.98px;font-family:Avalors;}.b0577f39-08dd-485e-a7e5-1c0322fba35b{letter-spacing:-0.1em;}.a0f76b74-1229-463f-b867-93b49efb13b6{letter-spacing:0em;}</style></defs><title>Namu</title><path d="M323.2,414.4s2.9-5.3,20.6-4.3c15.6-.9,25.3-15.6,32.4-35.5,5.1-13.9,1.2-34.2,1.2-34.2s-5.2,13-22,21.5-26.8,11.5-31.7,21.8c-2.6,5.8-6.4,22.4-3.5,27.4a64.4,64.4,0,0,1,32.6-29.8C349.6,383.7,329.5,399.2,323.2,414.4Z" transform="translate(-281 -340.4)"/><polygon points="100.6 140.1 106.5 144.8 106.5 76.9 79.5 76.9 79.5 123 100.6 140.1"/><polygon points="14.8 144 0.1 132.1 0 132 0 199.8 26.8 199.8 26.8 153.8 14.8 144"/><polygon points="100.6 159.5 85.8 147.5 71.1 135.6 56 123.3 56 123.3 0 77.8 0 112.5 0 112.6 26.8 134.3 26.8 134.3 53.2 155.7 79.5 177 106.5 198.8 106.5 164.2 100.6 159.5"/><text class="b473499d-cebc-49d2-bc8b-96bf39304848" transform="translate(127 198.5)">a<tspan class="b0577f39-08dd-485e-a7e5-1c0322fba35b" x="139.2" y="0">m</tspan><tspan class="a0f76b74-1229-463f-b867-93b49efb13b6" x="277" y="0">u</tspan></text></svg>