<svg id="a482f547-f7d4-4558-a7b2-2dcf93d862aa" data-name="Capa 1" xmlns="http://www.w3.org/2000/svg" width="106.5" height="199.8" viewBox="0 0 106.5 199.8"><title>NNamu</title><path d="M556.2,468.4s2.9-5.3,20.6-4.3c15.6-.9,25.3-15.6,32.4-35.5,5.1-13.9,1.2-34.2,1.2-34.2s-5.2,13-22,21.5-26.8,11.5-31.7,21.8c-2.6,5.8-6.4,22.4-3.5,27.4a64.4,64.4,0,0,1,32.6-29.8C582.6,437.7,562.5,453.2,556.2,468.4Z" transform="translate(-514 -394.4)"/><polygon points="100.6 140.1 106.5 144.8 106.5 76.9 79.5 76.9 79.5 123 100.6 140.1"/><polygon points="14.8 144 0.1 132.1 0 132 0 199.8 26.8 199.8 26.8 153.8 14.8 144"/><polygon points="100.6 159.5 85.8 147.5 71.1 135.6 56 123.3 56 123.3 0 77.8 0 112.5 0 112.6 26.8 134.3 26.8 134.3 53.2 155.7 79.5 177 106.5 198.8 106.5 164.2 100.6 159.5"/></svg>