<svg id="b848d9c8-7ffd-47a7-843e-ecde30261fbf" data-name="Capa 1" xmlns="http://www.w3.org/2000/svg" width="104.5" height="104" viewBox="0 0 104.5 104"><defs><style>.a3ae05fe-f724-49e4-8fae-b4a6c4ec2418{fill:#13b2a8;}.bb15b25c-5cf8-4c45-a096-f7c533a8f993{fill:#ed6c58;}.f2cfc20c-d96a-4b30-b023-308ceebf8e45{fill:#fbcaab;}.e430fe3b-b240-48f0-8791-c236ed2429f0{fill:#582b18;}.b2dca186-54aa-42e2-a596-1ad427f19784{fill:#62331e;}.efe7042a-c60f-453c-80b2-4ddfe1bc1536{fill:#382213;}.e13a0293-2233-4489-92aa-285920dc5c34{fill:#fef9f5;}.e4f25405-b6f5-4ff0-ba1b-12a4602e2d42{fill:#eab391;}</style></defs><title>Vane</title><g id="f19b5a37-776d-4cc7-955d-50b426cab6de" data-name="Vanessa"><path class="a3ae05fe-f724-49e4-8fae-b4a6c4ec2418" d="M514.5,853a51.8,51.8,0,0,1-26.3,45.1h0a52.9,52.9,0,0,1-43.8,3.7l-.5-.2a49.3,49.3,0,0,1-6.6-3h-.1l-.9-.6A52.1,52.1,0,1,1,514.5,853Z" transform="translate(-410 -801)"/><path class="bb15b25c-5cf8-4c45-a096-f7c533a8f993" d="M488.2,898.1h0a52.9,52.9,0,0,1-43.8,3.7l-.5-.2c-2.1-.9-4.3-1.8-6.6-3h-.1l-.9-.6h0a51.6,51.6,0,0,1,15.5-5.5A53.8,53.8,0,0,1,488.2,898.1Z" transform="translate(-410 -801)"/><path class="f2cfc20c-d96a-4b30-b023-308ceebf8e45" d="M469,892V882s9-3,14-16c3,0,6-4,6-6-1-4-3-3-4-2s3-25-8-29-33-1-33-1l-6,27a3.7,3.7,0,0,0-2,3c0,2,1,6,4,7,7,8,2,9,16,18v10h13Z" transform="translate(-410 -801)"/><path class="e430fe3b-b240-48f0-8791-c236ed2429f0" d="M451.5,819.2S451,809,462,809s12,11,12,11l-12,3Z" transform="translate(-410 -801)"/><path class="b2dca186-54aa-42e2-a596-1ad427f19784" d="M480,885s10-24,0-47c0,0-4-12-24-10-9,0-14,10-14,10s-5,27,2,47c-4-10-10-35-6-52,0-5,10-16,24-16s23,11,24,17C489,843,488,876,480,885Z" transform="translate(-410 -801)"/><path class="e430fe3b-b240-48f0-8791-c236ed2429f0" d="M466,846s7-1,11,1c-1-1-4-3-10-3Z" transform="translate(-410 -801)"/><path class="e430fe3b-b240-48f0-8791-c236ed2429f0" d="M456,846a19.6,19.6,0,0,0-10,1,16.1,16.1,0,0,1,9-3Z" transform="translate(-410 -801)"/><circle class="e430fe3b-b240-48f0-8791-c236ed2429f0" cx="41.5" cy="51.5" r="2.5"/><circle class="efe7042a-c60f-453c-80b2-4ddfe1bc1536" cx="41.5" cy="51.5" r="2.5"/><circle class="efe7042a-c60f-453c-80b2-4ddfe1bc1536" cx="62.5" cy="51.5" r="2.5"/><path class="e13a0293-2233-4489-92aa-285920dc5c34" d="M459,872h8s-4,5-8,0" transform="translate(-410 -801)"/><polygon class="e4f25405-b6f5-4ff0-ba1b-12a4602e2d42" points="52 62 51 64 54 64 53 62 52 62"/><path class="e4f25405-b6f5-4ff0-ba1b-12a4602e2d42" d="M469,882a31.5,31.5,0,0,1-13,1c1,2,13,4.8,13,4.8Z" transform="translate(-410 -801)"/><path class="f2cfc20c-d96a-4b30-b023-308ceebf8e45" d="M456,891.9a43.7,43.7,0,0,0-6.4,1.1c-.2,2,3.4,4,15.4,4,9,0,9.9-4,9.9-4s-4.9-1.1-5.9-1.1S456,891.9,456,891.9Z" transform="translate(-410 -801)"/></g></svg>