<svg id="be7bd917-01e5-4f3b-b79b-68bfe43f7c8c" data-name="Capa 1" xmlns="http://www.w3.org/2000/svg" width="104.5" height="104" viewBox="0 0 104.5 104"><defs><style>.acb92c29-86e0-41b4-8308-fefd4b9a254d{fill:#13b2a8;}.bd56f9f7-3938-477d-9f5f-0332da33a274{fill:#eaa050;}.bb486912-f259-460f-82f3-42cede35fa71{fill:#281406;}.ae32ec7d-7e65-4b06-99d8-ae4fb7ffeece{fill:#fbcaab;}.ac605708-ed4c-41b5-9421-6fd1a026bc65{fill:#ecad91;}.f11462b9-f767-4228-ab9b-80e1dc44a537{fill:#281612;}.faf13243-960f-4662-84d6-c08e341bfe55{fill:#fff;}.b1dd429f-8141-44b9-bf26-46505f7e44d8,.ea9a68d2-76a0-46c7-a8a3-4b38636df49d{fill:none;}.b1dd429f-8141-44b9-bf26-46505f7e44d8{stroke:#ecad91;stroke-width:0.25px;}.a0de3804-464a-4b3d-85ca-8e1858a2b993,.b1dd429f-8141-44b9-bf26-46505f7e44d8,.ea9a68d2-76a0-46c7-a8a3-4b38636df49d{stroke-miterlimit:10;}.a0de3804-464a-4b3d-85ca-8e1858a2b993{fill:#bcbcbc;stroke:#000;stroke-width:0.5px;opacity:0.3;}.ea9a68d2-76a0-46c7-a8a3-4b38636df49d{stroke:#b58f85;}</style></defs><title>Yur</title><g id="b17b55ee-0a17-40ae-bd65-5aac0efef68e" data-name="Yur"><path class="acb92c29-86e0-41b4-8308-fefd4b9a254d" d="M430.5,849a51.8,51.8,0,0,1-26.3,45.1h0a52.9,52.9,0,0,1-43.8,3.7l-.5-.2a49.3,49.3,0,0,1-6.6-3h-.1l-.9-.6A52.1,52.1,0,1,1,430.5,849Z" transform="translate(-326 -797)"/><path class="bd56f9f7-3938-477d-9f5f-0332da33a274" d="M404.2,894.1h0a52.9,52.9,0,0,1-43.8,3.7l-.5-.2c-2.1-.9-4.3-1.8-6.6-3h-.1l-.9-.6h0a51.6,51.6,0,0,1,15.5-5.5A53.8,53.8,0,0,1,404.2,894.1Z" transform="translate(-326 -797)"/><path class="bb486912-f259-460f-82f3-42cede35fa71" d="M354.4,849V821S353,807,371,807s24,4,24,4,6,1,9-2c0,0-6,5-3,9s1.4,31,1.4,31l-7.4,7-38-2Z" transform="translate(-326 -797)"/><path class="ae32ec7d-7e65-4b06-99d8-ae4fb7ffeece" d="M377,892s6.5.9,11.3-3.5a20,20,0,0,0-3.3-.6V878h3a20.4,20.4,0,0,0,11-9v-7a7.5,7.5,0,0,0,5-6c0-7-1-7-2-7a3.5,3.5,0,0,0-2,1s-2,2-2,0V825s-17-9-40,0v25s-1,2-2-1c-2,0-3-1-3,5s4,8,5,8v8s7,7,15,8v9.8l-4.5.6S371,891,377,892Z" transform="translate(-326 -797)"/><rect class="ac605708-ed4c-41b5-9421-6fd1a026bc65" x="50" y="61" width="4" height="2" rx="1"/><path class="ac605708-ed4c-41b5-9421-6fd1a026bc65" d="M401,851a4.3,4.3,0,0,1,2,4C403,852,403,850,401,851Z" transform="translate(-326 -797)"/><path class="ac605708-ed4c-41b5-9421-6fd1a026bc65" d="M354,855s0-3,2-3C355,851,354,851,354,855Z" transform="translate(-326 -797)"/><path class="ac605708-ed4c-41b5-9421-6fd1a026bc65" d="M354,857s1,3,3,4C356,860,355,858,354,857Z" transform="translate(-326 -797)"/><path class="ac605708-ed4c-41b5-9421-6fd1a026bc65" d="M356,854s1,1,0,1a1,1,0,0,0-1,1S355,854,356,854Z" transform="translate(-326 -797)"/><path class="ac605708-ed4c-41b5-9421-6fd1a026bc65" d="M401,854s1-1,0-1S401,854,401,854Z" transform="translate(-326 -797)"/><path class="ac605708-ed4c-41b5-9421-6fd1a026bc65" d="M400,859s2-2,2-4C402,855,401,858,400,859Z" transform="translate(-326 -797)"/><path class="ac605708-ed4c-41b5-9421-6fd1a026bc65" d="M373,878s3,1,12,0c-1,1-12,5-12,5Z" transform="translate(-326 -797)"/><path class="f11462b9-f767-4228-ab9b-80e1dc44a537" d="M373,838v-3s-7,0-9,3C364,838,370,836,373,838Z" transform="translate(-326 -797)"/><path class="f11462b9-f767-4228-ab9b-80e1dc44a537" d="M383,838v-3s7,0,9,3C392,838,386,836,383,838Z" transform="translate(-326 -797)"/><path class="faf13243-960f-4662-84d6-c08e341bfe55" d="M373,865h10S378,871,373,865Z" transform="translate(-326 -797)"/><path class="f11462b9-f767-4228-ab9b-80e1dc44a537" d="M364,846a11.7,11.7,0,0,1,9,0C373,845,368,840,364,846Z" transform="translate(-326 -797)"/><path class="f11462b9-f767-4228-ab9b-80e1dc44a537" d="M382,846a11.7,11.7,0,0,1,9,0C391,845,386,840,382,846Z" transform="translate(-326 -797)"/><line class="b1dd429f-8141-44b9-bf26-46505f7e44d8" x1="50" y1="76" x2="55" y2="76"/><rect class="a0de3804-464a-4b3d-85ca-8e1858a2b993" x="37" y="44" width="11" height="8" rx="1.5"/><rect class="a0de3804-464a-4b3d-85ca-8e1858a2b993" x="55" y="44" width="11" height="8" rx="1.4"/><line class="ea9a68d2-76a0-46c7-a8a3-4b38636df49d" x1="48" y1="48" x2="55" y2="48"/></g><path class="f11462b9-f767-4228-ab9b-80e1dc44a537" d="M357,812s0-1,11-8c-1,2,5,1,5,1s4-2,16,0a3.5,3.5,0,0,0-2,1s4,3,11,1c1,1,1.4,3.9,4.7,3a29.8,29.8,0,0,0-6.7,4S355,815,357,812Z" transform="translate(-326 -797)"/></svg>